<mxfile host="65bd71144e">
    <diagram id="aPfk7o5SNiWSzdZEq8oG" name="Page-1">
        <mxGraphModel dx="2204" dy="-40" grid="1" gridSize="10" guides="1" tooltips="1" connect="1" arrows="1" fold="1" page="1" pageScale="1" pageWidth="850" pageHeight="1100" math="0" shadow="0">
            <root>
                <mxCell id="0"/>
                <mxCell id="1" parent="0"/>
                <mxCell id="2" value="" style="swimlane;startSize=0;strokeColor=#CC0000;" parent="1" vertex="1">
                    <mxGeometry x="480" y="1600" width="610" height="440" as="geometry">
                        <mxRectangle x="480" y="1600" width="50" height="40" as="alternateBounds"/>
                    </mxGeometry>
                </mxCell>
                <mxCell id="3" value="Product" style="swimlane;fontStyle=2;align=center;verticalAlign=middle;childLayout=stackLayout;horizontal=1;startSize=26;horizontalStack=0;resizeParent=1;resizeLast=0;collapsible=1;marginBottom=0;rounded=0;shadow=0;strokeWidth=1;fontSize=16;" parent="2" vertex="1">
                    <mxGeometry x="25" y="101.5" width="305" height="242" as="geometry">
                        <mxRectangle x="25" y="101.5" width="160" height="26" as="alternateBounds"/>
                    </mxGeometry>
                </mxCell>
                <mxCell id="4" value="" style="line;html=1;strokeWidth=1;align=left;verticalAlign=middle;spacingTop=-1;spacingLeft=3;spacingRight=3;rotatable=0;labelPosition=right;points=[];portConstraint=eastwest;" parent="3" vertex="1">
                    <mxGeometry y="26" width="305" height="8" as="geometry"/>
                </mxCell>
                <mxCell id="5" value="- product_id" style="text;align=left;verticalAlign=middle;spacingLeft=4;spacingRight=4;overflow=hidden;rotatable=0;points=[[0,0.5],[1,0.5]];portConstraint=eastwest;" parent="3" vertex="1">
                    <mxGeometry y="34" width="305" height="26" as="geometry"/>
                </mxCell>
                <mxCell id="6" value="- attachments []" style="text;align=left;verticalAlign=middle;spacingLeft=4;spacingRight=4;overflow=hidden;rotatable=0;points=[[0,0.5],[1,0.5]];portConstraint=eastwest;fillColor=#cce5ff;strokeColor=#36393d;" parent="3" vertex="1">
                    <mxGeometry y="60" width="305" height="26" as="geometry"/>
                </mxCell>
                <mxCell id="7" value="- name ⚡string" style="text;align=left;verticalAlign=middle;spacingLeft=4;spacingRight=4;overflow=hidden;rotatable=0;points=[[0,0.5],[1,0.5]];portConstraint=eastwest;" parent="3" vertex="1">
                    <mxGeometry y="86" width="305" height="26" as="geometry"/>
                </mxCell>
                <mxCell id="8" value="- description⚡ string" style="text;align=left;verticalAlign=middle;spacingLeft=4;spacingRight=4;overflow=hidden;rotatable=0;points=[[0,0.5],[1,0.5]];portConstraint=eastwest;" parent="3" vertex="1">
                    <mxGeometry y="112" width="305" height="26" as="geometry"/>
                </mxCell>
                <mxCell id="9" value="- price⚡string" style="text;align=left;verticalAlign=middle;spacingLeft=4;spacingRight=4;overflow=hidden;rotatable=0;points=[[0,0.5],[1,0.5]];portConstraint=eastwest;" parent="3" vertex="1">
                    <mxGeometry y="138" width="305" height="26" as="geometry"/>
                </mxCell>
                <mxCell id="10" value="- category⚡[ labTest / suppliment / wellness / fitness ]" style="text;align=left;verticalAlign=middle;spacingLeft=4;spacingRight=4;overflow=hidden;rotatable=0;points=[[0,0.5],[1,0.5]];portConstraint=eastwest;" parent="3" vertex="1">
                    <mxGeometry y="164" width="305" height="26" as="geometry"/>
                </mxCell>
                <mxCell id="11" value="-  isDeleted ⚡ boolean" style="text;align=left;verticalAlign=top;spacingLeft=4;spacingRight=4;overflow=hidden;rotatable=0;points=[[0,0.5],[1,0.5]];portConstraint=eastwest;" parent="3" vertex="1">
                    <mxGeometry y="190" width="305" height="26" as="geometry"/>
                </mxCell>
                <mxCell id="12" value="Store" style="text;html=1;align=center;verticalAlign=middle;resizable=0;points=[];autosize=1;strokeColor=none;fillColor=none;fontSize=35;" parent="2" vertex="1">
                    <mxGeometry x="470" y="10" width="110" height="60" as="geometry"/>
                </mxCell>
                <mxCell id="13" value="ISSUE " style="swimlane;fontStyle=2;align=center;verticalAlign=middle;childLayout=stackLayout;horizontal=1;startSize=26;horizontalStack=0;resizeParent=1;resizeLast=0;collapsible=1;marginBottom=0;rounded=0;shadow=0;strokeWidth=1;fillColor=#ffcccc;strokeColor=#36393d;fontSize=16;" parent="2" vertex="1">
                    <mxGeometry x="380" y="110" width="210" height="160" as="geometry">
                        <mxRectangle x="230" y="140" width="160" height="26" as="alternateBounds"/>
                    </mxGeometry>
                </mxCell>
                <mxCell id="14" value="" style="line;html=1;strokeWidth=1;align=left;verticalAlign=middle;spacingTop=-1;spacingLeft=3;spacingRight=3;rotatable=0;labelPosition=right;points=[];portConstraint=eastwest;fontSize=16;" parent="13" vertex="1">
                    <mxGeometry y="26" width="210" height="8" as="geometry"/>
                </mxCell>
                <mxCell id="15" value="---- category er jonno alada&#xa;table banaite hobe kina .. &#xa;&#xa;--- lagbe na" style="text;align=left;verticalAlign=middle;spacingLeft=4;spacingRight=4;overflow=hidden;rotatable=0;points=[[0,0.5],[1,0.5]];portConstraint=eastwest;fontSize=16;" parent="13" vertex="1">
                    <mxGeometry y="34" width="210" height="126" as="geometry"/>
                </mxCell>
                <mxCell id="16" value="For Lab Test Booking&amp;nbsp;" style="edgeLabel;resizable=0;html=1;;align=center;verticalAlign=middle;" parent="1" connectable="0" vertex="1">
                    <mxGeometry x="629.8433080699538" y="1628.2461988479708" as="geometry"/>
                </mxCell>
                <mxCell id="17" value="Last Updated at 2 / 08 / 2025&amp;nbsp;" style="rounded=1;whiteSpace=wrap;html=1;" parent="1" vertex="1">
                    <mxGeometry x="470" y="1440" width="710" height="60" as="geometry"/>
                </mxCell>
                <mxCell id="18" value="" style="ellipse;whiteSpace=wrap;html=1;aspect=fixed;fillColor=#CCCCFF;" vertex="1" parent="1">
                    <mxGeometry x="370" y="1600" width="80" height="80" as="geometry"/>
                </mxCell>
            </root>
        </mxGraphModel>
    </diagram>
</mxfile>